HIERARCHY
ROOT Hips
{
	OFFSET 0.000000 0.000000 0.000000
	CHANNELS 6 Xposition Yposition Zposition Zrotation Yrotation Xrotation 
	JOINT LHipJoint
	{
		OFFSET 0.000000 0.000000 0.000000
		CHANNELS 3 Zrotation Yrotation Xrotation
		JOINT LeftUpLeg
		{
			OFFSET 1.363060 -1.794630 0.839290
			CHANNELS 3 Zrotation Yrotation Xrotation
			JOINT LeftLeg
			{
				OFFSET 2.448110 -6.726130 0.000000
				CHANNELS 3 Zrotation Yrotation Xrotation
				JOINT LeftFoot
				{
					OFFSET 2.562200 -7.039590 0.000000
					CHANNELS 3 Zrotation Yrotation Xrotation
					JOINT LeftToeBase
					{
						OFFSET 0.157640 -0.433110 2.322550
						CHANNELS 3 Zrotation Yrotation Xrotation
						End Site
						{
							OFFSET 0.000000 0.000000 0.000000
						}
					}
				}
			}
		}
	}
	JOINT RHipJoint
	{
		OFFSET 0.000000 0.000000 0.000000
		CHANNELS 3 Zrotation Yrotation Xrotation
		JOINT RightUpLeg
		{
			OFFSET -1.305520 -1.794630 0.839290
			CHANNELS 3 Zrotation Yrotation Xrotation
			JOINT RightLeg
			{
				OFFSET -2.542530 -6.985550 0.000000
				CHANNELS 3 Zrotation Yrotation Xrotation
				JOINT RightFoot
				{
					OFFSET -2.568260 -7.056230 0.000000
					CHANNELS 3 Zrotation Yrotation Xrotation
					JOINT RightToeBase
					{
						OFFSET -0.164730 -0.452590 2.363150
						CHANNELS 3 Zrotation Yrotation Xrotation
						End Site
						{
							OFFSET 0.000000 0.000000 0.000000
						}
					}
				}
			}
		}
	}
	JOINT LowerBack
	{
		OFFSET 0.000000 0.000000 0.000000
		CHANNELS 3 Zrotation Yrotation Xrotation
		JOINT Spine
		{
			OFFSET 0.028270 2.035590 -0.193380
			CHANNELS 3 Zrotation Yrotation Xrotation
			JOINT Spine1
			{
				OFFSET 0.056720 2.048850 -0.042750
				CHANNELS 3 Zrotation Yrotation Xrotation
				JOINT Neck
				{
					OFFSET 0.000000 0.000000 0.000000
					CHANNELS 3 Zrotation Yrotation Xrotation
					JOINT Neck1
					{
						OFFSET -0.054170 1.746240 0.172020
						CHANNELS 3 Zrotation Yrotation Xrotation
						JOINT Head
						{
							OFFSET 0.104070 1.761360 -0.123970
							CHANNELS 3 Zrotation Yrotation Xrotation
							End Site
							{
								OFFSET 0.000000 0.000000 0.000000
							}
						}
					}
				}
				JOINT LeftShoulder
				{
					OFFSET 0.000000 0.000000 0.000000
					CHANNELS 3 Zrotation Yrotation Xrotation
					JOINT LeftArm
					{
						OFFSET 3.362410 1.200890 -0.311210
						CHANNELS 3 Zrotation Yrotation Xrotation
						JOINT LeftForeArm
						{
							OFFSET 4.983000 -0.000000 -0.000000
							CHANNELS 3 Zrotation Yrotation Xrotation
							JOINT LeftHand
							{
								OFFSET 3.483560 -0.000000 -0.000000
								CHANNELS 3 Zrotation Yrotation Xrotation
								JOINT LeftFingerBase
								{
									OFFSET 0.000000 0.000000 0.000000
									CHANNELS 3 Zrotation Yrotation Xrotation
									JOINT LeftHandIndex1
									{
										OFFSET 0.715260 -0.000000 -0.000000
										CHANNELS 3 Zrotation Yrotation Xrotation
										End Site
										{
											OFFSET 0.000000 0.000000 0.000000
										}
									}
								}
								JOINT LThumb
								{
									OFFSET 0.000000 0.000000 0.000000
									CHANNELS 3 Zrotation Yrotation Xrotation
									End Site
									{
										OFFSET 0.000000 0.000000 0.000000
									}
								}
							}
						}
					}
				}
				JOINT RightShoulder
				{
					OFFSET 0.000000 0.000000 0.000000
					CHANNELS 3 Zrotation Yrotation Xrotation
					JOINT RightArm
					{
						OFFSET -3.136600 1.374050 -0.404650
						CHANNELS 3 Zrotation Yrotation Xrotation
						JOINT RightForeArm
						{
							OFFSET -5.241900 -0.000000 -0.000000
							CHANNELS 3 Zrotation Yrotation Xrotation
							JOINT RightHand
							{
								OFFSET -3.444170 -0.000000 -0.000000
								CHANNELS 3 Zrotation Yrotation Xrotation
								JOINT RightFingerBase
								{
									OFFSET 0.000000 0.000000 0.000000
									CHANNELS 3 Zrotation Yrotation Xrotation
									JOINT RightHandIndex1
									{
										OFFSET -0.622530 -0.000000 -0.000000
										CHANNELS 3 Zrotation Yrotation Xrotation
										End Site
										{
											OFFSET 0.000000 0.000000 0.000000
										}
									}
								}
								JOINT RThumb
								{
									OFFSET 0.000000 0.000000 0.000000
									CHANNELS 3 Zrotation Yrotation Xrotation
									End Site
									{
										OFFSET 0.000000 0.000000 0.000000
									}
								}
							}
						}
					}
				}
			}
		}
	}
}
MOTION
Frames: 7
Frame Time: 0.008333
-0.713903 18.288524 6.131421 -6.887864 -4.288487 0.251228 1.724470 3.678647 2.529293 -8.016686 -5.928377 -3.944737 1.239923 7.877386 25.241185 -0.451434 5.924923 -14.742145 8.512600 -16.483600 -54.388800 -2.499582 -3.837968 1.535926 22.421012 -0.503880 8.580181 0.482192 0.834206 1.720682 0.259127 -3.638215 -9.983062 -0.230800 3.092400 -8.536100 4.851687 1.317924 1.070616 5.452435 1.513802 8.877566 -5.577291 0.769975 -13.148339 -0.390979 -1.693456 -20.765264 0.706278 -1.291927 28.491209 -0.125700 -0.280500 8.455000 0.649477 -7.428594 1.071366 -91.014886 11.264665 24.863842 24.119618 -32.852313 -6.097996 0.414329 0.071616 9.586040 1.972023 -22.470722 -0.606100 -7.125000 0.000000 0.000000 -17.023600 8.133100 15.146600 -3.632187 9.869953 4.064443 100.402705 -15.360011 3.649412 -34.136953 41.698755 -10.715418 1.278663 -3.228944 22.014058 4.367899 -37.603564 -1.080700 7.125000 0.000000 0.000000 40.600900 -60.383400 -16.835400 
-0.715870 18.289114 6.136240 -6.849441 -4.237938 0.304713 1.720668 3.664921 2.501102 -8.066765 -6.031676 -3.905403 1.229562 7.872814 25.215434 -0.465959 6.005514 -14.822440 8.527100 -16.493600 -54.439700 -2.503963 -3.834375 1.507377 22.392935 -0.547197 8.555963 0.482041 0.831107 1.720176 0.256425 -3.633203 -10.002042 -0.231200 3.094700 -8.542500 4.816655 1.320818 1.156929 5.409393 1.533681 8.568441 -5.537010 0.779695 -13.074995 -0.330807 -1.677966 -20.638286 0.569428 -1.254977 28.397657 -0.155600 -0.279200 8.415800 0.622713 -7.440421 1.091271 -91.050363 11.331564 24.816851 24.203293 -32.926787 -6.126962 0.401953 0.070827 9.353162 1.550320 -22.235655 -0.443700 -7.125000 0.000000 0.000000 -17.281000 8.387300 15.307900 -3.603687 9.883097 4.090605 100.480419 -15.438844 3.515598 -34.188951 41.734784 -10.741537 1.280206 -3.227935 22.023686 4.373103 -37.575244 -1.082200 7.125000 0.000000 0.000000 40.574900 -60.362400 -16.801800 
-0.717837 18.288327 6.142044 -6.802962 -4.182029 0.352698 1.712365 3.652768 2.478983 -8.106237 -6.125074 -3.869402 1.218676 7.862263 25.172581 -0.464183 6.018222 -14.879587 8.516800 -16.486500 -54.403400 -2.512424 -3.832269 1.482636 22.360238 -0.600052 8.541602 0.482024 0.828747 1.719923 0.256706 -3.641359 -10.013037 -0.237900 3.138800 -8.665400 4.791692 1.322842 1.200589 5.320735 1.547063 8.308714 -5.476186 0.789700 -12.989336 -0.215992 -1.660509 -20.456252 0.378800 -1.218491 28.215728 -0.201500 -0.284100 8.352300 0.601998 -7.456737 1.104431 -91.084227 11.386528 24.770174 24.221134 -32.932755 -6.129836 0.396853 0.069877 9.253980 1.363780 -22.132972 -0.372700 -7.125000 0.000000 0.000000 -17.395400 8.498400 15.379500 -3.578655 9.893778 4.107275 100.547641 -15.506868 3.404135 -34.231293 41.755941 -10.751504 1.285023 -3.223313 22.050978 4.372251 -37.395132 -1.075200 7.125000 0.000000 0.000000 40.377200 -60.230300 -16.574200 
-0.719608 18.287639 6.147945 -6.781517 -4.162387 0.403587 1.705022 3.643307 2.460900 -8.113341 -6.145730 -3.872227 1.213154 7.857710 25.148453 -0.464066 6.020863 -14.885363 8.515300 -16.485500 -54.398400 -2.521776 -3.830043 1.462684 22.356177 -0.616805 8.531198 0.482202 0.827087 1.719619 0.256086 -3.644005 -10.024191 -0.248400 3.207000 -8.855600 4.794901 1.325286 1.206034 5.229765 1.558061 8.098422 -5.432760 0.796247 -12.899984 -0.103758 -1.630726 -20.294633 0.279216 -1.184621 28.070435 -0.228700 -0.277400 8.301600 0.589352 -7.472387 1.115477 -91.110830 11.446729 24.714851 24.205496 -32.906319 -6.122018 0.398850 0.071416 9.214804 1.410891 -22.130344 -0.389900 -7.125000 0.000000 0.000000 -17.368100 8.496900 15.353400 -3.557866 9.905772 4.117398 100.627518 -15.534775 3.310491 -34.211814 41.734456 -10.733267 1.281868 -3.223314 22.124471 4.285514 -37.245661 -1.021600 7.125000 0.000000 0.000000 40.127900 -60.134900 -16.358500 
-0.720788 18.287049 6.153060 -6.752675 -4.181521 0.445046 1.688645 3.631834 2.438303 -8.127890 -6.130493 -3.866775 1.209806 7.858493 25.137283 -0.468745 6.036814 -14.873296 8.526100 -16.492900 -54.436400 -2.542500 -3.826272 1.434842 22.354432 -0.599703 8.536119 0.482447 0.825338 1.719230 0.252795 -3.632616 -10.038592 -0.251000 3.223500 -8.901600 4.849490 1.327939 1.273757 5.038375 1.576910 7.830962 -5.380978 0.802698 -12.834546 -0.012891 -1.591176 -20.195086 0.282123 -1.151117 28.063783 -0.232700 -0.256200 8.285300 0.586094 -7.484769 1.136098 -91.134620 11.569153 24.621670 24.228788 -32.921024 -6.132611 0.400244 0.074227 9.182422 1.456490 -22.115127 -0.406600 -7.125000 0.000000 0.000000 -17.341500 8.506100 15.324100 -3.511562 9.920657 4.139541 100.718563 -15.599746 3.259997 -34.209976 41.735154 -10.737215 1.279006 -3.227463 22.137353 4.265764 -37.304673 -1.011800 7.125000 0.000000 0.000000 40.169500 -60.181500 -16.424200 
-0.721575 18.285967 6.158175 -6.741928 -4.204399 0.462061 1.672214 3.624171 2.424195 -8.125203 -6.120753 -3.852077 1.210325 7.865316 25.146529 -0.469021 6.042989 -14.882653 8.537700 -16.500900 -54.477200 -2.563457 -3.823445 1.413549 22.368330 -0.585402 8.556880 0.482823 0.824715 1.719001 0.254924 -3.641669 -10.027716 -0.256600 3.259100 -9.000900 4.934224 1.336303 1.334177 4.850095 1.600735 7.648819 -5.349935 0.809755 -12.801445 0.049405 -1.573717 -20.174883 0.302274 -1.142499 28.122022 -0.234700 -0.244700 8.292100 0.589881 -7.493124 1.152408 -91.144464 11.681999 24.527652 24.241462 -32.928564 -6.138551 0.400556 0.072410 9.238277 1.428359 -22.148765 -0.396300 -7.125000 0.000000 0.000000 -17.357500 8.477000 15.350300 -3.466996 9.932604 4.161176 100.813699 -15.684834 3.211903 -34.247521 41.769946 -10.763407 1.281510 -3.230514 22.141777 4.359665 -37.407556 -1.066000 7.125000 0.000000 0.000000 40.370700 -60.240500 -16.581000 
-0.721575 18.284590 6.163978 -6.800018 -4.212141 0.474353 1.676807 3.623961 2.420883 -8.069962 -6.128211 -3.844815 1.213594 7.872976 25.165869 -0.461449 6.027028 -14.920066 8.534800 -16.498800 -54.466800 -2.562143 -3.821547 1.408389 22.430833 -0.582785 8.568956 0.483261 0.824927 1.718844 0.259954 -3.664335 -10.011073 -0.269300 3.338100 -9.221500 5.000569 1.345690 1.316214 4.880943 1.619603 7.596824 -5.407537 0.809687 -12.764720 0.018291 -1.583522 -20.187900 0.349839 -1.158471 28.162584 -0.226700 -0.245900 8.303000 0.585024 -7.501422 1.157481 -91.161877 11.764037 24.463812 24.230143 -32.917466 -6.135278 0.402588 0.065600 9.300233 1.343125 -22.289229 -0.364900 -7.125000 0.000000 0.000000 -17.405600 8.353800 15.441900 -3.457634 9.942674 4.173411 100.910316 -15.740694 3.133406 -34.277623 41.799839 -10.784574 1.282824 -3.233695 22.195025 4.460947 -37.486140 -1.123600 7.125000 0.000000 0.000000 40.553800 -60.280600 -16.711100 
